<?xml version="1.0" encoding="UTF-8"?>
<svg version="1.1" xmlns="http://www.w3.org/2000/svg" width="512" height="512">
<path d="M0 0 C0.85596771 -0.00705963 1.71193542 -0.01411926 2.59384155 -0.02139282 C38.7902262 -0.25211532 38.7902262 -0.25211532 55.64453125 3.203125 C56.6411377 3.40711914 57.63774414 3.61111328 58.66455078 3.82128906 C109.95000958 14.67059166 153.74498315 39.20976719 191.64453125 75.203125 C192.47210938 75.98816406 193.2996875 76.77320312 194.15234375 77.58203125 C199.80316786 83.08518574 204.75155136 89.02463316 209.64453125 95.203125 C210.53060422 96.29869969 211.4173461 97.39373365 212.3046875 98.48828125 C244.99175338 139.07669769 267.55600755 191.93435719 267.84765625 244.55859375 C267.85471588 245.41456146 267.86177551 246.27052917 267.86904907 247.1524353 C268.09977157 283.34881995 268.09977157 283.34881995 264.64453125 300.203125 C264.33854004 301.69803467 264.33854004 301.69803467 264.02636719 303.22314453 C253.17706459 354.50860333 228.63788906 398.3035769 192.64453125 436.203125 C191.46697266 437.44449219 191.46697266 437.44449219 190.265625 438.7109375 C184.76247051 444.36176161 178.82302309 449.31014511 172.64453125 454.203125 C171.54895656 455.08919797 170.4539226 455.97593985 169.359375 456.86328125 C128.77095856 489.55034713 75.91329906 512.1146013 23.2890625 512.40625 C22.43309479 512.41330963 21.57712708 512.42036926 20.69522095 512.42764282 C-15.5011637 512.65836532 -15.5011637 512.65836532 -32.35546875 509.203125 C-33.85037842 508.89713379 -33.85037842 508.89713379 -35.37548828 508.58496094 C-86.66094708 497.73565834 -130.45592065 473.19648281 -168.35546875 437.203125 C-169.59683594 436.02556641 -169.59683594 436.02556641 -170.86328125 434.82421875 C-176.51410536 429.32106426 -181.46248886 423.38161684 -186.35546875 417.203125 C-187.24154172 416.10755031 -188.1282836 415.01251635 -189.015625 413.91796875 C-221.70269088 373.32955231 -244.26694505 320.47189281 -244.55859375 267.84765625 C-244.56565338 266.99168854 -244.57271301 266.13572083 -244.57998657 265.2538147 C-244.81070907 229.05743005 -244.81070907 229.05743005 -241.35546875 212.203125 C-241.04947754 210.70821533 -241.04947754 210.70821533 -240.73730469 209.18310547 C-229.88800209 157.89764667 -205.34882656 114.1026731 -169.35546875 76.203125 C-168.57042969 75.37554687 -167.78539062 74.54796875 -166.9765625 73.6953125 C-161.47340801 68.04448839 -155.53396059 63.09610489 -149.35546875 58.203125 C-148.25989406 57.31705203 -147.1648601 56.43031015 -146.0703125 55.54296875 C-105.48189606 22.85590287 -52.62423656 0.2916487 0 0 Z " fill="#040404" transform="translate(244.35546875,-0.203125)"/>
<path d="M0 0 C0.52271484 0.4741333 1.04542969 0.9482666 1.58398438 1.43676758 C16.09724618 14.87979042 27.42499373 31.43764562 36.3125 49 C36.65007324 49.66273926 36.98764648 50.32547852 37.33544922 51.00830078 C41.89508642 60.06580389 45.37537955 69.29991587 48.3125 79 C48.61027344 79.97839844 48.90804688 80.95679688 49.21484375 81.96484375 C61.37948384 124.14770019 53.24509535 169.95075814 32.74145508 208.04345703 C22.65204721 226.19099339 8.69572038 244.08298162 -7.6875 257 C-8.2335791 257.43135254 -8.7796582 257.86270508 -9.34228516 258.30712891 C-48.93464192 289.35690856 -94.29829177 302.47043209 -144.59765625 296.6640625 C-184.42038099 290.85772299 -225.70056257 267.69202756 -250.6875 236 C-251.11885254 235.4539209 -251.55020508 234.9078418 -251.99462891 234.34521484 C-283.04440856 194.75285808 -296.15793209 149.38920823 -290.3515625 99.08984375 C-285.24429702 64.06171161 -267.28260542 32.16974404 -243.6875 6.3125 C-243.2133667 5.78978516 -242.7392334 5.26707031 -242.25073242 4.72851562 C-228.80770958 -9.78474618 -212.24985438 -21.11249373 -194.6875 -30 C-194.02476074 -30.33757324 -193.36202148 -30.67514648 -192.67919922 -31.02294922 C-183.62169611 -35.58258642 -174.38758413 -39.06287955 -164.6875 -42 C-163.21990234 -42.44666016 -163.21990234 -42.44666016 -161.72265625 -42.90234375 C-104.1987577 -59.49101464 -43.08821303 -39.31861134 0 0 Z " fill="#f1dad0" transform="translate(374.6875,131)"/>
<path d="M0 0 C6.05247653 1.25300808 10.22662485 7.5622836 14.0390625 12.04296875 C16.62441675 15.02756791 19.3019707 17.91890463 21.98828125 20.8125 C26.31126174 25.47645173 30.59145465 30.17444934 34.8359375 34.91015625 C37.411379 37.76832203 40.01013889 40.60460261 42.61328125 43.4375 C46.70497332 47.89082617 50.76151102 52.37409888 54.80078125 56.875 C57.38943605 59.74350938 59.99972024 62.59172285 62.61328125 65.4375 C63.54169202 66.45179971 64.47007766 67.46612242 65.3984375 68.48046875 C67.14628396 70.38885077 68.90496908 72.28478728 70.671875 74.17578125 C80.80196733 85.13757246 80.80196733 85.13757246 81.42578125 91.75 C79.38189908 97.49233563 75.30777822 101.11963547 71.11328125 105.4375 C69.64764412 107.05591556 68.18919744 108.68087403 66.73828125 110.3125 C62.91854416 114.55813113 59.06350358 118.77060861 55.19970703 122.97607422 C52.31934296 126.11381113 49.45811878 129.26753818 46.61328125 132.4375 C42.83790908 136.64434327 39.02347677 140.81424853 35.19921875 144.9765625 C31.58444695 148.9144424 28.00661865 152.88406638 24.4375 156.86328125 C21.31723794 160.31916814 18.16144555 163.74191167 15.00585938 167.16552734 C12.47934679 169.91576028 10.01159726 172.6999938 7.61328125 175.5625 C4.5642174 179.06892342 3.04715369 180.29504488 -1.57421875 181 C-6.30281964 180.87009338 -8.66882933 178.6806688 -11.96484375 175.48046875 C-14.34690174 172.94832174 -16.66378421 170.38056869 -18.9140625 167.73046875 C-21.30397116 164.95249571 -23.7782486 162.25644095 -26.26171875 159.5625 C-29.65753451 155.87239944 -33.03787564 152.17043981 -36.38671875 148.4375 C-39.69673544 144.74919568 -43.03381296 141.08679525 -46.38671875 137.4375 C-50.47837982 132.98414513 -54.53494821 128.50090146 -58.57421875 124 C-61.16287355 121.13149062 -63.77315774 118.28327715 -66.38671875 115.4375 C-67.31512952 114.42320029 -68.24351516 113.40887758 -69.171875 112.39453125 C-70.91972146 110.48614923 -72.67840658 108.59021272 -74.4453125 106.69921875 C-84.57540483 95.73742754 -84.57540483 95.73742754 -85.19921875 89.125 C-83.15533658 83.38266437 -79.08121572 79.75536453 -74.88671875 75.4375 C-73.42108162 73.81908444 -71.96263494 72.19412597 -70.51171875 70.5625 C-66.69198166 66.31686887 -62.83694108 62.10439139 -58.97314453 57.89892578 C-56.09278046 54.76118887 -53.23155628 51.60746182 -50.38671875 48.4375 C-46.61134658 44.23065673 -42.79691427 40.06075147 -38.97265625 35.8984375 C-35.35788445 31.9605576 -31.78005615 27.99093362 -28.2109375 24.01171875 C-25.09067544 20.55583186 -21.93488305 17.13308833 -18.77929688 13.70947266 C-16.25278429 10.95923972 -13.78503476 8.1750062 -11.38671875 5.3125 C-7.84727346 1.24213792 -5.46303048 -0.15979614 0 0 Z " fill="#040404" transform="translate(257.88671875,165.5625)"/>
<path d="M0 0 C1.61356418 1.33004023 3.21505131 2.67299853 4.81176758 4.02319336 C5.67801758 4.74764648 6.54426758 5.47209961 7.43676758 6.21850586 C24.88430885 21.24932689 38.11167815 41.82484112 46.81176758 63.02319336 C47.15723633 63.85463867 47.50270508 64.68608398 47.85864258 65.54272461 C61.83395904 101.39478645 59.66280738 143.27000756 44.49926758 178.33569336 C38.22747999 192.16498499 30.61362248 204.43169497 20.81176758 216.02319336 C20.08731445 216.88944336 19.36286133 217.75569336 18.61645508 218.64819336 C-6.33505392 247.61151361 -44.46693436 264.83133317 -82.18823242 268.02319336 C-120.9814106 270.40116888 -159.28466468 258.70730074 -189.10229492 233.56616211 C-193.27204293 229.85766941 -197.29370071 226.02021275 -201.18823242 222.02319336 C-201.75670898 221.49983398 -202.32518555 220.97647461 -202.91088867 220.43725586 C-228.67773455 196.15597366 -241.96394871 157.69309447 -243.50463867 123.01928711 C-244.23196681 96.5964656 -239.33249251 67.3238587 -224.18823242 45.02319336 C-220.25444342 41.18321491 -220.25444342 41.18321491 -216.87182617 40.67553711 C-213.00486265 41.16647335 -210.71836151 41.61928549 -207.56323242 44.02319336 C-205.35374507 48.84389304 -206.27520315 53.47268303 -208.03930664 58.40063477 C-209.12658715 60.90255455 -210.27208726 63.36958694 -211.43823242 65.83569336 C-225.35919389 96.69106252 -226.02059343 131.94374362 -214.1730957 163.64135742 C-201.55027905 195.96583275 -178.20450421 222.02402358 -146.2590332 236.15600586 C-140.02038152 238.76856077 -133.63316353 240.97955575 -127.18823242 243.02319336 C-126.07834961 243.38413086 -124.9684668 243.74506836 -123.82495117 244.11694336 C-119.25123987 245.25668667 -114.75149405 245.73680126 -110.06323242 246.14819336 C-109.12890381 246.23166016 -108.1945752 246.31512695 -107.23193359 246.40112305 C-70.2523724 249.53742508 -35.63656324 238.94382177 -7.18823242 215.02319336 C17.52762078 193.60997667 32.04904456 162.55331644 35.49926758 130.33569336 C37.19934378 106.35753526 33.7471481 84.86906017 23.81176758 63.02319336 C23.16981445 61.58073242 23.16981445 61.58073242 22.51489258 60.10913086 C16.65231688 47.62645563 8.29635681 36.96192499 -1.18823242 27.02319336 C-2.06801758 26.03125977 -2.06801758 26.03125977 -2.96557617 25.01928711 C-21.11243081 5.36350364 -49.17809262 -6.21292032 -75.18823242 -9.97680664 C-76.0931543 -10.10829102 -76.99807617 -10.23977539 -77.93041992 -10.37524414 C-92.8598077 -12.096077 -107.59841263 -11.45057326 -122.18823242 -7.97680664 C-123.3715918 -7.72157227 -124.55495117 -7.46633789 -125.77416992 -7.20336914 C-134.64808353 -5.10519868 -142.69452454 -1.79861449 -150.95654297 2.02563477 C-159.12268692 5.72803226 -159.12268692 5.72803226 -164.18823242 5.02319336 C-167.23848746 3.46417412 -168.76719196 2.24909569 -169.89526367 -1.03540039 C-170.68301804 -5.40117929 -170.74961904 -7.11511739 -168.23120117 -10.98071289 C-164.89741759 -14.67085027 -160.85815733 -16.53337201 -156.37573242 -18.53930664 C-155.53042969 -18.92497803 -154.68512695 -19.31064941 -153.81420898 -19.70800781 C-104.09646561 -41.89041699 -42.5206902 -34.34979199 0 0 Z " fill="#030202" transform="translate(349.188232421875,137.976806640625)"/>
<path d="M0 0 C3.57101809 1.48592699 5.54542756 3.46742847 8.0625 6.375 C11.49981194 10.29206812 14.96787089 14.16885141 18.5 18 C22.59249765 22.45258085 26.64823757 26.93660758 30.6875 31.4375 C33.27615068 34.30600481 35.88593074 37.1546931 38.5 40 C45.76624661 47.91258405 52.95450366 55.88975019 60 64 C58.39606978 67.86776315 55.77367619 70.6265358 52.9375 73.625 C51.93578643 74.7001376 50.93448985 75.77566385 49.93359375 76.8515625 C49.43585449 77.38426758 48.93811523 77.91697266 48.42529297 78.46582031 C46.42370633 80.62032022 44.46096949 82.80853681 42.5 85 C38.72462783 89.20684327 34.91019552 93.37674853 31.0859375 97.5390625 C27.47240797 101.47558908 23.89565138 105.44369811 20.328125 109.421875 C18.61785026 111.3158034 16.90025771 113.2008641 15.171875 115.078125 C14.68654297 115.60535156 14.20121094 116.13257813 13.70117188 116.67578125 C12.32811843 118.1652578 10.95317818 119.65299437 9.578125 121.140625 C6.96842418 124.03502046 4.47516155 126.99063092 2 130 C-1.57101809 128.51407301 -3.54542756 126.53257153 -6.0625 123.625 C-9.49981194 119.70793188 -12.96787089 115.83114859 -16.5 112 C-20.59249765 107.54741915 -24.64823757 103.06339242 -28.6875 98.5625 C-31.27615068 95.69399519 -33.88593074 92.8453069 -36.5 90 C-43.76624661 82.08741595 -50.95450366 74.11024981 -58 66 C-56.39606978 62.13223685 -53.77367619 59.3734642 -50.9375 56.375 C-49.93578643 55.2998624 -48.93448985 54.22433615 -47.93359375 53.1484375 C-47.43585449 52.61573242 -46.93811523 52.08302734 -46.42529297 51.53417969 C-44.42370633 49.37967978 -42.46096949 47.19146319 -40.5 45 C-36.72462783 40.79315673 -32.91019552 36.62325147 -29.0859375 32.4609375 C-25.47240797 28.52441092 -21.89565138 24.55630189 -18.328125 20.578125 C-16.61785026 18.6841966 -14.90025771 16.7991359 -13.171875 14.921875 C-12.68654297 14.39464844 -12.20121094 13.86742187 -11.70117188 13.32421875 C-10.32811843 11.8347422 -8.95317818 10.34700563 -7.578125 8.859375 C-4.96842418 5.96497954 -2.47516155 3.00936908 0 0 Z " fill="#7a0748" transform="translate(255,191)"/>
<path d="M0 0 C4.26253776 3.47539328 7.83193881 6.92667324 11.1875 11.3125 C11.65744385 11.92150146 12.1273877 12.53050293 12.61157227 13.15795898 C26.99502477 31.99029691 38.9824498 52.06260004 48 74 C48.45761719 75.07894531 48.91523438 76.15789062 49.38671875 77.26953125 C55.02248475 91.1189373 58.81343186 105.59159183 61.3125 120.3125 C61.47177979 121.24102783 61.63105957 122.16955566 61.79516602 123.1262207 C63.11565169 131.46892552 63.46628384 139.46054151 64 148 C49.48 148 34.96 148 20 148 C19.34 141.07 18.68 134.14 18 127 C11.14230168 89.81017451 -5.27787059 59.08484484 -29 30 C-23.47349666 23.25919575 -17.30550441 17.1928871 -11.125 11.0625 C-10.04403726 9.98656273 -8.96330617 8.91039269 -7.8828125 7.83398438 C-5.25787359 5.21996708 -2.62981372 2.60911404 0 0 Z " fill="#7a0748" transform="translate(428,98)"/>
<path d="M0 0 C6.74080425 5.52650334 12.8071129 11.69449559 18.9375 17.875 C20.01343727 18.95596274 21.08960731 20.03669383 22.16601562 21.1171875 C24.78003292 23.74212641 27.39088596 26.37018628 30 29 C27.88794835 32.59814423 25.65645675 35.70699595 22.9375 38.875 C7.75424653 57.35896075 -4.09360965 79.08983613 -11 102 C-11.37382813 103.13695312 -11.74765625 104.27390625 -12.1328125 105.4453125 C-16.46636022 119.28056485 -17.8005812 133.60697443 -19 148 C-33.52 148 -48.04 148 -63 148 C-61.20957206 119.35315294 -55.23558868 93.37073092 -44 67 C-43.55817383 65.96166016 -43.55817383 65.96166016 -43.10742188 64.90234375 C-32.92819072 41.37798665 -18.20773304 18.20773304 0 0 Z " fill="#f1dad0" transform="translate(83,98)"/>
<path d="M0 0 C3.59814423 2.11205165 6.70699595 4.34354325 9.875 7.0625 C41.67641079 33.18508744 78.49493863 45.14237511 119 49 C119 63.52 119 78.04 119 93 C90.35315294 91.20957206 64.37073092 85.23558868 38 74 C37.30777344 73.70544922 36.61554688 73.41089844 35.90234375 73.10742188 C17.4953664 65.14253355 0.63430391 54.51727345 -15 42 C-15.96317139 41.23429687 -15.96317139 41.23429687 -16.94580078 40.453125 C-18.80924558 38.96199261 -20.65782901 37.45480628 -22.5 35.9375 C-23.05872803 35.48431396 -23.61745605 35.03112793 -24.19311523 34.56420898 C-25.52186907 33.44341182 -26.76976593 32.2281275 -28 31 C-28 28 -28 28 -25.4296875 25.08911133 C-24.25246159 23.91236127 -23.06695862 22.74385576 -21.875 21.58203125 C-21.25351074 20.96478683 -20.63202148 20.34754242 -19.99169922 19.71159363 C-18.00138167 17.73809421 -16.00089605 15.77526775 -14 13.8125 C-12.65035991 12.47790263 -11.30139264 11.14262449 -9.953125 9.80664062 C-6.64317773 6.52980425 -3.32407262 3.26250403 0 0 Z " fill="#f1dad0" transform="translate(127,399)"/>
<path d="M0 0 C0 14.19 0 28.38 0 43 C-6.93 43.66 -13.86 44.32 -21 45 C-58.18982549 51.85769832 -88.91515516 68.27787059 -118 92 C-124.74080425 86.47349666 -130.8071129 80.30550441 -136.9375 74.125 C-138.01343727 73.04403726 -139.08960731 71.96330617 -140.16601562 70.8828125 C-142.78003292 68.25787359 -145.39088596 65.62981372 -148 63 C-144.52460672 58.73746224 -141.07332676 55.16806119 -136.6875 51.8125 C-136.07849854 51.34255615 -135.46949707 50.8726123 -134.84204102 50.38842773 C-116.00970309 36.00497523 -95.93739996 24.0175502 -74 15 C-72.92105469 14.54238281 -71.84210938 14.08476563 -70.73046875 13.61328125 C-56.88533721 7.97925468 -42.39278392 4.18708001 -27.6875 1.625 C-26.75897217 1.45734131 -25.83044434 1.28968262 -24.8737793 1.11694336 C-16.33838434 -0.26381513 -8.95568938 0 0 0 Z " fill="#7a0748" transform="translate(246,21)"/>
<path d="M0 0 C13.86 0 27.72 0 42 0 C42 10.0513054 41.79579405 18.49661591 39.875 28.125 C39.64981689 29.28588135 39.42463379 30.4467627 39.19262695 31.64282227 C34.44510344 55.35114419 26.51327759 77.7281823 15 99 C14.59410645 99.7513623 14.18821289 100.50272461 13.77001953 101.27685547 C7.40833159 112.9251851 0.303422 123.6509632 -8 134 C-8.51191895 134.64356445 -9.02383789 135.28712891 -9.55126953 135.95019531 C-11.04105237 137.81207106 -12.54674905 139.65922729 -14.0625 141.5 C-14.51560547 142.05864746 -14.96871094 142.61729492 -15.43554688 143.19287109 C-16.55643764 144.52169645 -17.77179123 145.76968452 -19 147 C-22 147 -22 147 -24.91088867 144.4296875 C-26.08763873 143.25246159 -27.25614424 142.06695862 -28.41796875 140.875 C-29.03521317 140.25351074 -29.65245758 139.63202148 -30.28840637 138.99169922 C-32.26190579 137.00138167 -34.22473225 135.00089605 -36.1875 133 C-37.52209737 131.65035991 -38.85737551 130.30139264 -40.19335938 128.953125 C-43.47019575 125.64317773 -46.73749597 122.32407262 -50 119 C-47.88794835 115.40185577 -45.65645675 112.29300405 -42.9375 109.125 C-24.47695134 86.69796835 -12.57878891 60.47877513 -5.6875 32.375 C-5.34174927 30.96589355 -5.34174927 30.96589355 -4.98901367 29.52832031 C-2.72552651 19.72292384 -1.50571543 10.03810286 0 0 Z " fill="#f1dad0" transform="translate(449,266)"/>
<path d="M0 0 C7.48960542 0 14.35360391 0.2026779 21.6875 1.25 C22.64156738 1.38422363 23.59563477 1.51844727 24.57861328 1.65673828 C32.90670612 2.88519836 40.91006467 4.66829343 49 7 C49.64066406 7.18288574 50.28132813 7.36577148 50.94140625 7.55419922 C67.68339801 12.38458004 83.6200614 18.82317821 99 27 C99.64646484 27.33725098 100.29292969 27.67450195 100.95898438 28.02197266 C115.46060904 35.62269981 128.60037801 45.10464158 141.125 55.625 C141.72328613 56.12169189 142.32157227 56.61838379 142.93798828 57.13012695 C144.3536745 58.35207209 145.68610787 59.66920893 147 61 C147 64 147 64 144.4296875 66.91088867 C143.25246159 68.08763873 142.06695862 69.25614424 140.875 70.41796875 C140.25351074 71.03521317 139.63202148 71.65245758 138.99169922 72.28840637 C137.00138167 74.26190579 135.00089605 76.22473225 133 78.1875 C131.65035991 79.52209737 130.30139264 80.85737551 128.953125 82.19335938 C125.64317773 85.47019575 122.32407262 88.73749597 119 92 C115.40185577 89.88794835 112.29300405 87.65645675 109.125 84.9375 C90.24066437 69.40926646 68.38276209 58.04649828 45 51 C43.96810547 50.67741211 42.93621094 50.35482422 41.87304688 50.02246094 C32.84386993 47.29730049 23.93334815 45.65233841 14.625 44.25 C9.79875 43.5075 4.9725 42.765 0 42 C0 28.14 0 14.28 0 0 Z " fill="#f1dad0" transform="translate(266,21)"/>
<path d="M0 0 C6.74080425 5.52650334 12.8071129 11.69449559 18.9375 17.875 C20.01343727 18.95596274 21.08960731 20.03669383 22.16601562 21.1171875 C24.78003292 23.74212641 27.39088596 26.37018628 30 29 C26.52456822 33.26258498 23.07319476 36.83170786 18.6875 40.1875 C17.7761731 40.89132812 17.7761731 40.89132812 16.84643555 41.609375 C-7.37159214 60.11761167 -33.03559757 73.57632609 -62 83 C-63.20011719 83.39058594 -64.40023437 83.78117187 -65.63671875 84.18359375 C-82.73643442 89.38433568 -100.15459298 92 -118 92 C-118 78.14 -118 64.28 -118 50 C-110.884375 48.9171875 -110.884375 48.9171875 -103.625 47.8125 C-64.6964932 41.62066125 -29.89563687 25.99912689 0 0 Z " fill="#7a0748" transform="translate(384,399)"/>
<path d="M0 0 C13.86 0 27.72 0 42 0 C42.721875 4.74375 43.44375 9.4875 44.1875 14.375 C50.37933875 53.3035068 66.00087311 88.10436313 92 118 C86.47349666 124.74080425 80.30550441 130.8071129 74.125 136.9375 C73.04403726 138.01343727 71.96330617 139.08960731 70.8828125 140.16601562 C68.25787359 142.78003292 65.62981372 145.39088596 63 148 C58.73741502 144.52456822 55.16829214 141.07319476 51.8125 136.6875 C51.10867187 135.7761731 51.10867187 135.7761731 50.390625 134.84643555 C31.88238833 110.62840786 18.42367391 84.96440243 9 56 C8.41412109 54.19982422 8.41412109 54.19982422 7.81640625 52.36328125 C2.61566432 35.26356558 0 17.84540702 0 0 Z " fill="#7a0748" transform="translate(21,266)"/>
<path d="M0 0 C3.23614894 2.12904535 4.29269525 4.18134969 5.0625 7.875 C5.334065 11.41859207 4.9214213 12.13505715 3 15.4375 C-0.54594585 18.46632874 -2.36299711 19.08280362 -7 19 C-10.62036655 17.4366599 -13.2601659 15.57632565 -15 12 C-15.21431243 7.84233882 -14.6796522 4.88354786 -12.125 1.5625 C-7.96492179 -1.49638104 -4.8863851 -1.11443871 0 0 Z " fill="#040404" transform="translate(161,147)"/>
</svg>
