<svg width="512" height="512" viewBox="0 0 512 512" fill="none" xmlns="http://www.w3.org/2000/svg"
    xmlns:xlink="http://www.w3.org/1999/xlink" class="">
    <rect id="_r_3b_" width="512" height="512" x="0" y="0" rx="128" fill="url(#_r_3c_)" stroke="#FFFFFF"
        stroke-width="0" stroke-opacity="100%" paint-order="stroke"></rect>
    <clipPath id="clip">
        <use xlink:href="#_r_3b_"></use>
    </clipPath>
    <defs>
        <radialGradient id="_r_3c_" cx="50%" cy="50%" r="100%" fx="50%" fy="0%" gradientUnits="objectBoundingBox">
            <stop stop-color="#1D6E47"></stop>
            <stop offset="1" stop-color="#041B11"></stop>
        </radialGradient>
        <radialGradient id="_r_3d_" cx="0" cy="0" r="1" gradientUnits="userSpaceOnUse"
            gradientTransform="translate(256) rotate(90) scale(512)">
            <stop stop-color="white"></stop>
            <stop offset="1" stop-color="white" stop-opacity="0"></stop>
        </radialGradient>
    </defs><svg xmlns="http://www.w3.org/2000/svg" fill="none" viewBox="0 0 16 16" width="480" height="480" x="16"
        y="16" alignment-baseline="middle" style="color: rgb(220, 238, 222);">
        <path fill="currentColor" fill-rule="evenodd"
            d="M2.5 8a5.5 5.5 0 0 1 8.14-4.827.75.75 0 1 0 .72-1.315 7 7 0 1 0 1.12 11.52.75.75 0 0 0-.96-1.152A5.5 5.5 0 0 1 2.5 8ZM8 5.5a2.5 2.5 0 0 0-1.538 4.471.75.75 0 1 1-.924 1.182 4 4 0 0 1 4.003-6.845.75.75 0 0 1-.578 1.384A2.49 2.49 0 0 0 8 5.5Zm0 2.75a.25.25 0 1 0 0-.5.25.25 0 0 0 0 .5ZM6.75 8a1.25 1.25 0 1 1 2.5 0 1.25 1.25 0 0 1-2.5 0Zm6 1.25h-.94l-2.53 2.53a.75.75 0 0 1-1.06-1.06l2.53-2.53v-.94a.75.75 0 0 1 .22-.53l1.5-1.5a.75.75 0 0 1 1.251.736l-.129.452.452-.13a.75.75 0 0 1 .736 1.252l-1.5 1.5a.75.75 0 0 1-.53.22Z"
            clip-rule="evenodd"></path>
    </svg>
</svg>